<svg width="8" height="16" viewBox="0 0 8 16" fill="none" xmlns="http://www.w3.org/2000/svg">
<path d="M2.05996 15.7344H5.077C5.33587 15.7344 5.54575 15.5245 5.54575 15.2656V8.4742H7.11319C7.35348 8.4742 7.55487 8.2925 7.57948 8.0535L7.84373 5.48873C7.85733 5.35678 7.81438 5.22518 7.72543 5.12668C7.63655 5.02813 7.5101 4.97193 7.37744 4.97193H5.54575V3.93307C5.54575 3.7185 5.61366 3.70244 5.71731 3.70244H7.3393C7.59817 3.70244 7.80805 3.49256 7.80805 3.23369V0.743457C7.80805 0.485293 7.59934 0.275762 7.34117 0.274707L5.10425 0.265625C3.53675 0.265625 2.70021 0.955274 2.27447 1.53377C1.67998 2.3416 1.59121 3.28812 1.59121 3.78043V4.97188H0.62506C0.366193 4.97188 0.156311 5.18176 0.156311 5.44063V8.00539C0.156311 8.26426 0.366193 8.47414 0.62506 8.47414H1.59121V15.2656C1.59121 15.5245 1.80103 15.7344 2.05996 15.7344ZM1.09375 7.5367V5.90943H2.0599C2.31877 5.90943 2.52865 5.69955 2.52865 5.44068V3.78049C2.52865 3.47668 2.57746 2.70377 3.02945 2.08947C3.46222 1.50137 4.1603 1.20318 5.10225 1.20318L6.87043 1.21033V2.765H5.71719C5.16518 2.765 4.60814 3.12617 4.60814 3.93312V5.44074C4.60814 5.69961 4.81802 5.90949 5.07688 5.90949H6.85784L6.69014 7.53676H5.07688C4.81802 7.53676 4.60814 7.74664 4.60814 8.00551V14.7969H2.52859V8.00545C2.52859 7.74658 2.31871 7.5367 2.05984 7.5367H1.09375Z" fill="#01A3A4"/>
</svg>
