<svg width="16" height="16" viewBox="0 0 16 16" fill="none" xmlns="http://www.w3.org/2000/svg">
<path d="M11.9396 0.479736H4.08952C2.0991 0.479736 0.479797 2.09911 0.479797 4.08953V11.9395C0.479797 13.93 2.0991 15.5493 4.08952 15.5493H11.9396C13.93 15.5493 15.5492 13.93 15.5492 11.9395V4.08953C15.5492 2.09911 13.93 0.479736 11.9396 0.479736ZM14.5988 11.9394C14.5988 13.4057 13.4059 14.5988 11.9396 14.5988H4.08952C2.62329 14.5988 1.43048 13.4057 1.43048 11.9394V4.08953C1.43048 2.6233 2.62337 1.43049 4.08952 1.43049H11.9396C13.4059 1.43049 14.5988 2.62338 14.5988 4.08953V11.9394Z" fill="#01A3A4"/>
<path d="M12.226 3.23389C11.9068 3.23389 11.6471 3.49353 11.6471 3.81257C11.6471 4.13161 11.9068 4.39118 12.226 4.39118C12.545 4.39118 12.8046 4.13161 12.8046 3.81257C12.8046 3.49353 12.545 3.23389 12.226 3.23389Z" fill="#01A3A4"/>
<path d="M8.0143 4.3208C5.97774 4.3208 4.32086 5.97767 4.32086 8.01423C4.32086 10.0509 5.97774 11.7079 8.0143 11.7079C10.051 11.7079 11.708 10.0509 11.708 8.01423C11.708 5.97767 10.051 4.3208 8.0143 4.3208ZM8.0143 10.7576C6.50171 10.7576 5.27117 9.52689 5.27117 8.01423C5.27117 6.50194 6.50171 5.27162 8.0143 5.27162C9.52674 5.27162 10.7571 6.50194 10.7571 8.01423C10.7572 9.52689 9.52674 10.7576 8.0143 10.7576Z" fill="#01A3A4"/>
</svg>
