<svg width="16" height="16" viewBox="0 0 16 16" fill="none" xmlns="http://www.w3.org/2000/svg">
<g clip-path="url(#clip0_1_2290)">
<path d="M15.6224 5.88294L10.44 5.40228L8.38134 0.62201C8.23721 0.287292 7.76262 0.287292 7.6185 0.62201L5.55991 5.40231L0.377447 5.88294C0.0145727 5.91659 -0.132083 6.36794 0.141698 6.60844L4.05188 10.0435L2.90757 15.1209C2.82744 15.4764 3.21138 15.7553 3.52472 15.5692L7.99993 12.9119L12.4751 15.5692C12.7885 15.7553 13.1725 15.4764 13.0923 15.1209L11.948 10.0435L15.8582 6.60844C16.1319 6.36794 15.9853 5.91659 15.6224 5.88294Z" fill="#FFDC64"/>
<path d="M8.38134 0.62201C8.23721 0.287292 7.76262 0.287292 7.6185 0.62201L5.55991 5.40231L0.377447 5.88294C0.0145727 5.91659 -0.132083 6.36794 0.141698 6.60844L4.05188 10.0435L2.90757 15.1209C2.82744 15.4764 3.21138 15.7553 3.52472 15.5692L4.52356 14.9761C4.66181 9.28549 7.30587 5.27809 9.39924 2.98563L8.38134 0.62201Z" fill="#FFC850"/>
</g>
<defs>
<clipPath id="clip0_1_2290">
<rect width="16" height="16" fill="white"/>
</clipPath>
</defs>
</svg>
