<svg width="17" height="14" viewBox="0 0 17 14" fill="none" xmlns="http://www.w3.org/2000/svg">
<path d="M16.3588 2.412C16.4745 2.23862 16.4617 2.00964 16.3275 1.85009C16.1934 1.6906 15.97 1.63892 15.7793 1.72312C15.7673 1.72839 15.7554 1.73366 15.7434 1.73882C15.8536 1.54106 15.9448 1.33165 16.0147 1.11327C16.0741 0.927764 16.0126 0.724912 15.8603 0.603623C15.708 0.482275 15.4965 0.467862 15.329 0.567178C14.8561 0.847959 14.3501 1.05433 13.8217 1.18229C13.189 0.609365 12.3567 0.2854 11.4986 0.2854C9.59611 0.2854 8.04823 1.83239 8.04823 3.73394C8.04823 3.78831 8.04947 3.84257 8.05193 3.89659C6.00941 3.64763 4.12409 2.61263 2.81265 1.003C2.7155 0.883759 2.5662 0.819717 2.41269 0.831787C2.25935 0.843799 2.12165 0.930224 2.04425 1.06312C1.73874 1.58747 1.57726 2.18724 1.57726 2.79761C1.57726 3.38073 1.72292 3.94265 1.99046 4.4387C1.91868 4.44345 1.84779 4.46472 1.78374 4.50245C1.6406 4.58671 1.55277 4.74034 1.55277 4.90646V4.94372C1.55277 5.97638 2.01613 6.92396 2.76074 7.56398C2.74462 7.57786 2.72933 7.59298 2.71503 7.60921C2.60611 7.73296 2.57013 7.90482 2.6204 8.06185C2.94073 9.06275 3.68974 9.83917 4.62806 10.2131C3.86628 10.5961 3.02523 10.7951 2.14866 10.7951C1.92765 10.7951 1.70663 10.7824 1.49177 10.7574C1.27509 10.7321 1.06954 10.8598 0.996184 11.0653C0.922766 11.2708 1.00087 11.4997 1.1845 11.6176C2.6265 12.5425 4.29431 13.0313 6.00765 13.0313C9.37409 13.0313 11.4817 11.4419 12.657 10.1086C14.12 8.44892 14.959 6.25159 14.959 4.07993C14.959 4.02638 14.9586 3.97423 14.9577 3.92314C15.5028 3.49704 15.9733 2.98968 16.3588 2.412ZM14.207 3.3147C14.0782 3.40757 14.0052 3.55939 14.013 3.718C14.0186 3.83343 14.0215 3.95179 14.0215 4.07993C14.0215 6.02648 13.2678 7.99786 11.9537 9.48872C10.9061 10.6771 9.02423 12.0938 6.00765 12.0938C5.0848 12.0938 4.17659 11.9353 3.31843 11.6287C4.34441 11.4435 5.30423 11.0131 6.1399 10.3575C6.29587 10.2351 6.35804 10.0278 6.29505 9.83982C6.23206 9.65185 6.05763 9.52376 5.85935 9.52001C5.03417 9.50448 4.28722 9.08853 3.83628 8.43398C4.07154 8.41968 4.30538 8.38148 4.53413 8.31966C4.74408 8.263 4.88739 8.06935 4.88042 7.85202C4.87345 7.6347 4.71788 7.45071 4.50478 7.40765C3.57097 7.21904 2.84206 6.51802 2.58782 5.63495C2.83855 5.70116 3.09689 5.73948 3.35652 5.74816C3.56611 5.7553 3.75437 5.62241 3.81841 5.42308C3.88251 5.22374 3.80652 5.00601 3.63238 4.88976C2.93265 4.42276 2.51493 3.64065 2.51493 2.79755C2.51493 2.58392 2.542 2.37222 2.5948 2.16761C4.16558 3.7896 6.30425 4.76841 8.57101 4.88138C8.71902 4.8887 8.85988 4.82653 8.95421 4.71362C9.04849 4.60066 9.08429 4.44995 9.05083 4.30663C9.00777 4.12212 8.98591 3.92941 8.98591 3.73388C8.98591 2.34931 10.1132 1.22284 11.4988 1.22284C12.1905 1.22284 12.8592 1.51177 13.3336 2.01544C13.444 2.13263 13.6069 2.18501 13.7648 2.15413C13.9424 2.11939 14.118 2.07726 14.2913 2.0278C14.2044 2.09689 14.1125 2.16058 14.0161 2.21823C13.8265 2.33179 13.742 2.5623 13.8132 2.77148C13.8845 2.98071 14.0919 3.11185 14.3116 3.08595C14.388 3.07698 14.4641 3.06667 14.54 3.05495C14.4325 3.14548 14.3215 3.23208 14.207 3.3147Z" fill="#01A3A4"/>
</svg>
